<svg xmlns="http://www.w3.org/2000/svg" viewBox="0 0 151.89 59.19"><g id="b5cc82ce-d7b0-4c46-8c9a-3c2b87771e6f" data-name="Layer 1"><path d="M19.12,58a4.52,4.52,0,0,1-3.7-1.83,5,5,0,0,1-4,1.83H6.5a5.09,5.09,0,0,1-5.31-5.25C.74,24.54.74,24.54.74,24.52a4.75,4.75,0,0,1,4.93-4.9h4.48a4.83,4.83,0,0,1,4.62,3.1,4.84,4.84,0,0,1,4.82-3.57l6.24.07a5,5,0,0,1,5.06,5.05v.19c0,.09,0,.19,0,.28l-2.13,29A4.41,4.41,0,0,1,24.26,58Z"/><path d="M18.49,55.48a2.55,2.55,0,0,1-2.66-2.67V44.57l-2-.17s.19,7.89.19,7.91a3,3,0,0,1-3.23,3.17H5.87A3.22,3.22,0,0,1,2.45,52.1L2,23.89a2.86,2.86,0,0,1,3-3H9.52a2.93,2.93,0,0,1,3.06,2.91L13,31l2.86.13V23.64A3,3,0,0,1,19,20.41l6.21.08a3,3,0,0,1,3.19,3.15V24L26.23,53a2.54,2.54,0,0,1-2.6,2.49Z"/><path d="M19.12,56.11a2.54,2.54,0,0,1-2.66-2.66V45.2l-2-.17s.19,7.89.19,7.91a3,3,0,0,1-3.23,3.17H6.5a3.21,3.21,0,0,1-3.42-3.37s-.45-28.21-.45-28.22a2.86,2.86,0,0,1,3-3h4.48a2.93,2.93,0,0,1,3.06,2.91l.39,7.18,2.86.13V24.27A3,3,0,0,1,19.59,21l6.21.08A3,3,0,0,1,29,24.27v.33l-2.13,29a2.54,2.54,0,0,1-2.6,2.49Z"/><path d="M25.15,22.38,19,22.31h0c-.83,0-1.24.44-1.24,1.33v8.63c0,.52-.24.78-.73.78h-.08l-5-.23a.69.69,0,0,1-.73-.73l-.45-8.2a1,1,0,0,0-1.17-1.11H5A1,1,0,0,0,3.9,23.89v0l.45,28.16a1.35,1.35,0,0,0,1.52,1.51h4.89c.89,0,1.34-.43,1.34-1.28v-.06l-.23-9v0a.7.7,0,0,1,.79-.79h.06l4.3.36a.67.67,0,0,1,.7.75v9.29a.69.69,0,0,0,.77.78h5.14c.44,0,.67-.25.71-.74l2.13-29v-.19Q26.47,22.39,25.15,22.38Z"/><path d="M31.16,58a5.12,5.12,0,0,1-5.31-5.22c-.51-27.11-.51-27.12-.51-27.14a5.06,5.06,0,0,1,5.31-5.26H43.27a5,5,0,0,1,5.13,5.12v6.61a5,5,0,0,1-2.1,4.1,4.64,4.64,0,0,1,.59,2.31v3.2A4.57,4.57,0,0,1,46,44.57,5,5,0,0,1,48.4,49v3.87A5,5,0,0,1,43.27,58Z"/><path d="M30.53,55.48a3.23,3.23,0,0,1-3.42-3.37S26.6,25,26.6,25A3.18,3.18,0,0,1,30,21.65H42.64a3.06,3.06,0,0,1,3.23,3.23v6.6c0,1.49-1,3.23-3.79,3.23H37.64v.54H41.7a2.55,2.55,0,0,1,2.67,2.65v3.2a2.57,2.57,0,0,1-2.21,2.63l-4.79.8v.62h5.27a3.05,3.05,0,0,1,3.23,3.23v3.87a3.06,3.06,0,0,1-3.23,3.23Zm7.11-19.76"/><path d="M31.16,56.11a3.24,3.24,0,0,1-3.42-3.37s-.51-27.08-.51-27.09a3.18,3.18,0,0,1,3.42-3.37H43.27a3.05,3.05,0,0,1,3.23,3.23v6.61c0,1.49-1,3.23-3.79,3.23H38.27v.53h4.06A2.55,2.55,0,0,1,45,38.53v3.2a2.57,2.57,0,0,1-2.21,2.63l-4.79.8v.62h5.27A3,3,0,0,1,46.5,49v3.87a3.05,3.05,0,0,1-3.23,3.23Zm7.11-19.76"/><path d="M42.64,23.55H30c-1,0-1.52.49-1.52,1.46v.06l.51,27a1.37,1.37,0,0,0,1.52,1.53H42.64A1.19,1.19,0,0,0,44,52.25V48.38A1.19,1.19,0,0,0,42.64,47h-6a1,1,0,0,1-1.14-1.15V44a1.09,1.09,0,0,1,1-1.21l5.34-.88a.7.7,0,0,0,.64-.77V37.9a.67.67,0,0,0-.77-.75H37.26a1.35,1.35,0,0,1-1.52-1.53V34.16a1.18,1.18,0,0,1,1.33-1.34h5c1.26,0,1.9-.44,1.9-1.34v-6.6A1.18,1.18,0,0,0,42.64,23.55Z"/><path d="M66.77,59.19A5.07,5.07,0,0,1,62.47,57a5.88,5.88,0,0,1-7.52.1,5.21,5.21,0,0,1-2.84.8H48.24a4.92,4.92,0,0,1-5.11-5.07v-.09L44,26.22a5.14,5.14,0,0,1,5.31-5.15h5.93A5.42,5.42,0,0,1,60,23.73a5.46,5.46,0,0,1,4.74-2.53h6.1a5.08,5.08,0,0,1,5.29,5.22v.09l-.87,27.73a5,5,0,0,1-5.16,4.95Z"/><path d="M66.13,56.66A3.18,3.18,0,0,1,62.85,54L62.3,51.2l-.89,2.47a3.66,3.66,0,0,1-6.88-.38,3.08,3.08,0,0,1-3.05,2.11H47.61a3,3,0,0,1-3.21-3.17v-.09l.86-26.49a3.24,3.24,0,0,1,3.42-3.32H54.6A3.58,3.58,0,0,1,58.14,25l1.14,3.51,1.3-3.52a3.6,3.6,0,0,1,3.54-2.48h6.1a3.19,3.19,0,0,1,3.4,3.33v.09l-.87,27.67a3.08,3.08,0,0,1-3.27,3.11Z"/><path d="M66.77,57.3a3.19,3.19,0,0,1-3.29-2.7l-.55-2.77L62,54.3a3.65,3.65,0,0,1-6.87-.38A3.11,3.11,0,0,1,52.11,56H48.24A3,3,0,0,1,45,52.86v-.09l.86-26.49A3.24,3.24,0,0,1,49.31,23h5.93a3.58,3.58,0,0,1,3.53,2.62l1.15,3.51,1.29-3.51a3.6,3.6,0,0,1,3.54-2.49h6.1a3.19,3.19,0,0,1,3.4,3.33v.09l-.87,27.67a3.09,3.09,0,0,1-3.27,3.12Z"/><path d="M70.22,24.36h-6.1a1.73,1.73,0,0,0-1.77,1.24l-3.17,8.65-2.85-8.73a1.68,1.68,0,0,0-1.73-1.3H48.68a1.36,1.36,0,0,0-1.52,1.49l-.87,26.43v.09a1.15,1.15,0,0,0,1.32,1.28h3.87a1.25,1.25,0,0,0,1.36-1.26L54,43l2.39,9.83a1.77,1.77,0,0,0,3.26.19l3.21-8.88,1.87,9.46a1.3,1.3,0,0,0,1.42,1.17h3.35a1.2,1.2,0,0,0,1.38-1.28l.86-27.61v-.09C71.72,24.83,71.22,24.36,70.22,24.36Z"/><path d="M76.49,58a5,5,0,0,1-5.12-5.13V24.82a5.08,5.08,0,0,1,5.31-5.31H88.57a10.67,10.67,0,0,1,7.68,3.06,10.44,10.44,0,0,1,3.31,7.74v5.47a11.49,11.49,0,0,1-2.75,7.61L95.6,44.83a9.78,9.78,0,0,1-7.69,3.58H87v4.47A5,5,0,0,1,81.87,58Z"/><path d="M75.86,55.48a3.06,3.06,0,0,1-3.23-3.23V24.19a3.2,3.2,0,0,1,3.42-3.42H87.94A8.82,8.82,0,0,1,94.3,23.3,8.59,8.59,0,0,1,97,29.68v5.47a9.67,9.67,0,0,1-2.3,6.39L93.52,43a7.8,7.8,0,0,1-6.24,2.92H84.47v6.36a3.06,3.06,0,0,1-3.23,3.23Zm8.65-19.64.58-.24a.7.7,0,0,0,.22-.13.44.44,0,0,0,0-.17V31.22h-.82Z"/><path d="M76.49,56.11a3.06,3.06,0,0,1-3.23-3.23V24.82a3.2,3.2,0,0,1,3.42-3.42H88.57a8.82,8.82,0,0,1,6.36,2.53,8.6,8.6,0,0,1,2.74,6.38v5.47a9.68,9.68,0,0,1-2.31,6.39l-1.21,1.44a7.82,7.82,0,0,1-6.24,2.91H85.1v6.36a3.06,3.06,0,0,1-3.23,3.23Zm8.65-19.64.58-.24a.85.85,0,0,0,.22-.12.55.55,0,0,0,0-.18V31.85h-.82Z"/><path d="M87.94,22.66H76.05a1.35,1.35,0,0,0-1.53,1.53V52.25a1.19,1.19,0,0,0,1.34,1.34h5.38a1.18,1.18,0,0,0,1.33-1.34V44.76a.69.69,0,0,1,.78-.77h3.93a6,6,0,0,0,4.79-2.24l1.21-1.43a7.78,7.78,0,0,0,1.86-5.17V29.68a6.72,6.72,0,0,0-2.16-5A7,7,0,0,0,87.94,22.66ZM87.22,35.3a2.07,2.07,0,0,1-1.41,2.05l-2.28.94a1.06,1.06,0,0,1-.43.1c-.33,0-.49-.25-.49-.75V30.09a.68.68,0,0,1,.77-.77h2.13A1.51,1.51,0,0,1,87.22,31Z"/><path d="M98.27,58a4.46,4.46,0,0,1-4.56-4.55v-.17l1.06-28.54a5.13,5.13,0,0,1,5.33-5.13h5.58A5.08,5.08,0,0,1,111,24.93V53.45A4.46,4.46,0,0,1,106.43,58Z"/><path d="M97.64,55.48A2.55,2.55,0,0,1,95,52.83a.49.49,0,0,1,0-.12l1-28.52a3.24,3.24,0,0,1,3.43-3.31h5.59a3.2,3.2,0,0,1,3.42,3.42V52.81a2.56,2.56,0,0,1-2.67,2.67Z"/><path d="M98.27,56.11a2.54,2.54,0,0,1-2.66-2.65v-.12l1-28.52a3.25,3.25,0,0,1,3.44-3.31h5.58a3.2,3.2,0,0,1,3.42,3.42V53.45a2.55,2.55,0,0,1-2.67,2.66Z"/><path d="M105.05,22.78H99.46a1.37,1.37,0,0,0-1.54,1.48l-1,28.52v0a.68.68,0,0,0,.77.76h8.16a.68.68,0,0,0,.77-.78V24.3A1.34,1.34,0,0,0,105.05,22.78Z"/><path d="M112,58a5.13,5.13,0,0,1-5.31-5.22c-.51-27.11-.51-27.12-.51-27.14a5.06,5.06,0,0,1,5.31-5.26h12.62a5,5,0,0,1,5.13,5.12v6.61a5,5,0,0,1-2.1,4.1,4.64,4.64,0,0,1,.59,2.31v3.2a4.57,4.57,0,0,1-.94,2.84A5,5,0,0,1,129.26,49v3.87A5,5,0,0,1,124.13,58Z"/><path d="M111.39,55.48A3.23,3.23,0,0,1,108,52.11S107.46,25,107.46,25a3.18,3.18,0,0,1,3.42-3.36H123.5a3.06,3.06,0,0,1,3.23,3.23v6.6c0,1.49-1,3.23-3.79,3.23H118.5v.54h4.06a2.55,2.55,0,0,1,2.67,2.65v3.2A2.57,2.57,0,0,1,123,43.73l-4.79.8v.62h5.27a3.05,3.05,0,0,1,3.23,3.23v3.87a3.06,3.06,0,0,1-3.23,3.23Zm7.11-19.76"/><path d="M112,56.11a3.24,3.24,0,0,1-3.42-3.37s-.5-27.08-.5-27.09a3.18,3.18,0,0,1,3.41-3.37h12.62a3.05,3.05,0,0,1,3.23,3.23v6.61c0,1.49-1,3.23-3.79,3.23h-4.44v.53h4.06a2.55,2.55,0,0,1,2.67,2.65v3.2a2.57,2.57,0,0,1-2.2,2.63l-4.8.8v.62h5.27A3,3,0,0,1,127.36,49v3.87a3.05,3.05,0,0,1-3.23,3.23Zm7.11-19.76"/><path d="M123.5,23.55H110.88c-1,0-1.52.49-1.52,1.46v.06l.51,27a1.37,1.37,0,0,0,1.52,1.53H123.5a1.19,1.19,0,0,0,1.34-1.34V48.38A1.19,1.19,0,0,0,123.5,47h-6a1,1,0,0,1-1.14-1.15V44a1.1,1.1,0,0,1,1-1.21l5.34-.88a.7.7,0,0,0,.64-.77V37.9a.67.67,0,0,0-.77-.75h-4.44a1.35,1.35,0,0,1-1.52-1.53V34.16a1.19,1.19,0,0,1,1.34-1.34h5c1.27,0,1.9-.44,1.9-1.34v-6.6A1.18,1.18,0,0,0,123.5,23.55Z"/><path d="M129.33,57.93a5,5,0,0,1-5.13-5.12V47.69a4.92,4.92,0,0,1,3.65-4.93,10.94,10.94,0,0,1-3.65-8.56V30.67a9.77,9.77,0,0,1,2.88-7.38,10.21,10.21,0,0,1,7.32-2.67h11.7a5,5,0,0,1,5.13,5.12v5.92A5,5,0,0,1,149,36c1.09,1.43,1.6,3.39,1.6,6.14v6a9.29,9.29,0,0,1-3.73,7.59,11.74,11.74,0,0,1-7.28,2.27Z"/><path d="M128.69,55.4a3.05,3.05,0,0,1-3.23-3.23V47.06a3.06,3.06,0,0,1,3.23-3.23h6.51l-3-1c-4.41-1.52-6.74-4.7-6.74-9.22V30a7.94,7.94,0,0,1,2.29-6,8.39,8.39,0,0,1,6-2.15h11.7a3.06,3.06,0,0,1,3.23,3.23V31a3.05,3.05,0,0,1-3.23,3.23h-1.61a7.93,7.93,0,0,1,2.86,2c.93,1.08,1.36,2.73,1.36,5.18v6a7.36,7.36,0,0,1-3,6.09A10,10,0,0,1,139,55.4Z"/><path d="M129.33,56a3.05,3.05,0,0,1-3.23-3.23V47.69a3.05,3.05,0,0,1,3.23-3.23h6.51l-3-1c-4.41-1.51-6.73-4.7-6.73-9.22V30.67a8,8,0,0,1,2.28-6,8.39,8.39,0,0,1,6-2.15h11.7a3.05,3.05,0,0,1,3.23,3.23v5.92a3,3,0,0,1-3.23,3.23h-1.61a7.84,7.84,0,0,1,2.86,2c.93,1.08,1.36,2.73,1.36,5.18v6a7.35,7.35,0,0,1-3,6.08A10,10,0,0,1,139.6,56Z"/><path d="M145.47,23.77h-11.7a6.58,6.58,0,0,0-4.71,1.63,6.12,6.12,0,0,0-1.7,4.64v3.53q0,5.55,5.45,7.43l4.59,1.58a1.53,1.53,0,0,1,1,1.62c0,1-.45,1.52-1.34,1.52h-8.39a1.18,1.18,0,0,0-1.33,1.34v5.11a1.18,1.18,0,0,0,1.33,1.34H139a8.1,8.1,0,0,0,5-1.5,5.43,5.43,0,0,0,2.22-4.58v-6c0-1.93-.3-3.25-.91-3.95a7.52,7.52,0,0,0-4.08-2.14l-3.59-.87c-.85-.2-1.28-.61-1.28-1.24s.38-.9,1.15-.9h8A1.19,1.19,0,0,0,146.81,31V25.11A1.19,1.19,0,0,0,145.47,23.77Z"/><path d="M104.18,19.21a7,7,0,0,1-1.92-.28,6.55,6.55,0,0,1-4.61-6.32.86.86,0,0,1,0-.16,3,3,0,0,1-2.33-1.76,7.58,7.58,0,0,1-.65-3.09A6.86,6.86,0,0,1,101.53.75h13.29a2,2,0,0,1,1.76,2.87L114.67,7l-5.52,9.83a1.33,1.33,0,0,1-.29.38A6.49,6.49,0,0,1,104.18,19.21Z"/><path d="M114.89,2.76l-1.63,2.9-.24.42-4.35,7.74-1.17,2.09a4.62,4.62,0,0,1-8-3.3A4.48,4.48,0,0,1,99.87,11l.28-.49a12.8,12.8,0,0,1,1.71-1.82,13,13,0,0,1,5.8-3,.14.14,0,0,0-.1-.26A12.65,12.65,0,0,0,99,10.16a1.12,1.12,0,0,1-1.9-.24,5.61,5.61,0,0,1-.49-2.32h0a5,5,0,0,1,5-4.95h13.29A.08.08,0,0,1,114.89,2.76Z"/><text transform="translate(1.24 51.69)" style="font-size:38.52109909057617px;fill:#f3efe6;font-family:Nove">Hempies</text><path d="M113.63,1.5,112,4.4l-.23.41-4.35,7.75-1.17,2.08a4.63,4.63,0,0,1-8-3.29,4.7,4.7,0,0,1,.33-1.64l.28-.49a13.17,13.17,0,0,1,7.51-4.78.14.14,0,0,0-.1-.26A12.61,12.61,0,0,0,97.7,8.9a1.14,1.14,0,0,1-1.91-.24,5.77,5.77,0,0,1-.48-2.32h0a5,5,0,0,1,5-4.95h13.3A.08.08,0,0,1,113.63,1.5Z" style="fill:#f3efe6"/></g></svg>